<svg width="34" height="36" viewBox="0 0 34 36" fill="none" xmlns="http://www.w3.org/2000/svg">
<path fill-rule="evenodd" clip-rule="evenodd" d="M5.66667 11.0769C5.66667 8.13914 6.86071 5.32168 8.98612 3.24436C11.1115 1.16703 13.9942 0 17 0C20.0058 0 22.8885 1.16703 25.0139 3.24436C27.1393 5.32168 28.3333 8.13914 28.3333 11.0769V16.4622C28.3333 17.76 28.764 19.0228 29.5611 20.0622L33.4333 25.1077C33.749 25.5191 33.9413 26.0083 33.9885 26.5205C34.0358 27.0327 33.9362 27.5477 33.7009 28.0077C33.4656 28.4677 33.1038 28.8545 32.6562 29.1249C32.2086 29.3953 31.6929 29.5385 31.1667 29.5385H2.83333C2.30715 29.5385 1.79136 29.3953 1.34376 29.1249C0.896164 28.8545 0.534441 28.4677 0.299124 28.0077C0.0638078 27.5477 -0.0358043 27.0327 0.0114499 26.5205C0.0587042 26.0083 0.250958 25.5191 0.566668 25.1077L4.43889 20.0622C5.23585 19.0236 5.66667 17.7604 5.66667 16.4622V11.0769ZM17 36C15.5761 35.9998 14.1904 35.5505 13.0486 34.719C11.9069 33.8875 11.0702 32.7181 10.6628 31.3846H23.3372C22.9298 32.7181 22.0931 33.8875 20.9514 34.719C19.8096 35.5505 18.4239 35.9998 17 36Z" fill="url(#paint0_linear_615_117)"/>
<defs>
<linearGradient id="paint0_linear_615_117" x1="17" y1="0" x2="17" y2="36" gradientUnits="userSpaceOnUse">
<stop stop-color="#3C88C4"/>
<stop offset="1" stop-color="#142C40"/>
</linearGradient>
</defs>
</svg>
