<svg width="30" height="29" viewBox="0 0 30 29" fill="none" xmlns="http://www.w3.org/2000/svg">
<path d="M2.96795 3.15576H27.0056V25.5583H2.96795V3.15576Z" fill="#1C0A00"/>
<path d="M2.96795 3.15582H27.0056V25.5583H2.96795V3.15582ZM1.87312 26.6055H28.0967V2.10864H1.87312V26.6055ZM19.0496 10.8396C19.0496 10.7561 19.0824 10.714 19.1807 10.714H20.8965C20.9836 10.714 21.0276 10.7454 21.0276 10.8396V19.0994C21.0276 19.1829 21.0061 19.225 20.8965 19.225H19.2041C19.0945 19.225 19.0618 19.173 19.0618 19.0887V10.8396H19.0496ZM18.9297 8.46347C18.9297 8.18027 19.0471 7.90867 19.2561 7.70841C19.4651 7.50816 19.7486 7.39566 20.0442 7.39566C20.3398 7.39566 20.6233 7.50816 20.8323 7.70841C21.0413 7.90867 21.1587 8.18027 21.1587 8.46347C21.1695 8.60814 21.1474 8.75333 21.0938 8.88899C21.0402 9.02464 20.9565 9.14751 20.8484 9.24908C20.7404 9.35065 20.6105 9.4285 20.468 9.47723C20.3254 9.52596 20.1734 9.5444 20.0227 9.53128C19.875 9.54016 19.727 9.51844 19.5888 9.4676C19.4507 9.41676 19.3255 9.338 19.222 9.23667C19.1185 9.13534 19.0389 9.01383 18.9888 8.88041C18.9387 8.74698 18.9192 8.60478 18.9316 8.46347H18.9297ZM14.0128 14.2844C13.7065 13.1179 12.9826 10.5892 12.7128 9.36438H12.6913C12.4618 10.5892 11.883 12.662 11.4241 14.2844H14.0128ZM10.9755 15.9803L10.112 19.121C10.0905 19.2044 10.0577 19.2259 9.94812 19.2259H8.34379C8.23422 19.2259 8.21268 19.1945 8.23422 19.0689L11.337 8.65999C11.4126 8.3762 11.4494 8.08423 11.4466 7.79138C11.4466 7.7178 11.4794 7.68639 11.5337 7.68639H13.8283C13.9051 7.68639 13.9379 7.70703 13.9594 7.79138L17.434 19.0869C17.4556 19.1703 17.434 19.2233 17.3469 19.2233H15.5328C15.4457 19.2233 15.3905 19.2026 15.3689 19.1335L14.4726 15.9821H10.9765L10.9755 15.9803Z" fill="#FF7F18"/>
</svg>
