<svg width="39" height="49" viewBox="0 0 39 49" fill="none" xmlns="http://www.w3.org/2000/svg">
<path d="M34.212 0C36.7368 0 38.7731 2.28622 38.8935 4.97661V48.258L34.0863 43.6876L31.4466 40.9972L28.5663 38.1862L29.7694 42.6199H4.56112C2.04353 42.6199 0 40.4784 0 37.6413V4.98666C0 2.29628 2.04712 0.00603225 4.5701 0.00603225H34.1994L34.212 0ZM23.2258 11.4271H23.1719L22.8092 11.8292C26.5317 13.0357 28.3328 14.9198 28.3328 14.9198C25.9338 13.5766 23.7717 12.905 21.6097 12.6335C20.0474 12.3621 18.4851 12.5049 17.1653 12.6335H16.8061C15.9621 12.6335 14.1664 13.0357 11.7602 14.1115C10.9216 14.5196 10.4403 14.7871 10.4403 14.7871C10.4403 14.7871 12.2396 12.7723 16.2046 11.6965L15.9621 11.4251C15.9621 11.4251 12.9597 11.2964 9.71842 13.9787C9.71842 13.9787 6.47715 20.3005 6.47715 28.0942C6.47715 28.0942 8.27287 31.5929 13.1985 31.7256C13.1985 31.7256 13.9168 30.6539 14.6441 29.7109C11.8787 28.7698 10.8012 26.8878 10.8012 26.8878C10.8012 26.8878 11.0419 27.0205 11.4028 27.2899H11.5106C11.5644 27.2899 11.5896 27.3201 11.6183 27.3502V27.3623C11.647 27.3945 11.6722 27.4226 11.726 27.4226C12.3186 27.6961 12.9112 27.9655 13.3961 28.2269C14.2329 28.6331 15.3085 29.0373 16.6283 29.3047C18.2984 29.5761 20.2126 29.7068 22.3926 29.3047C23.47 29.0332 24.5475 28.7678 25.6249 28.2289C26.3252 27.8268 27.1872 27.4246 28.1335 26.747C28.1335 26.747 27.0561 28.6291 24.174 29.5701C24.7665 30.5071 25.6016 31.5809 25.6016 31.5809C30.529 31.4602 32.4432 27.9615 32.551 28.1103C32.551 20.3287 29.2918 13.9948 29.2918 13.9948C26.3558 11.5538 23.6083 11.4613 23.1235 11.4613L23.224 11.4211L23.2258 11.4271ZM23.5275 20.3005C24.7899 20.3005 25.8081 21.507 25.8081 22.9849C25.8081 24.4729 24.7845 25.6793 23.5275 25.6793C22.2705 25.6793 21.2469 24.4729 21.2469 22.997C21.2505 21.509 22.2759 20.3066 23.5275 20.3066V20.3005ZM15.3695 20.3005C16.6266 20.3005 17.6429 21.507 17.6429 22.9849C17.6429 24.4729 16.6194 25.6793 15.3624 25.6793C14.1054 25.6793 13.0818 24.4729 13.0818 22.997C13.0818 21.509 14.1054 20.3066 15.3624 20.3066L15.3695 20.3005Z" fill="white"/>
</svg>
