<svg width="18" height="14" viewBox="0 0 18 14" fill="none" xmlns="http://www.w3.org/2000/svg">
<path d="M15.4632 6.32443C15.0633 6.20249 14.6494 6.1131 14.2397 6.02067C14.1247 5.99463 13.9326 6.00852 13.9142 5.93388C13.8919 5.84708 14.0645 5.78633 14.1545 5.7169C14.6717 5.34804 15.085 4.89558 15.3672 4.38943C15.5281 4.1098 15.5872 3.79956 15.5376 3.4943C15.4881 3.18904 15.332 2.90113 15.0872 2.6636C14.729 2.31463 14.286 2.02735 13.7851 1.81912C12.8014 1.40198 11.7555 1.08657 10.6723 0.88048C10.6349 0.872235 10.5909 0.854009 10.5448 0.905215C10.5991 0.935158 10.6495 0.965969 10.7033 0.995044C11.0315 1.17383 11.3663 1.34481 11.6869 1.53185C12.3128 1.86686 12.8621 2.28534 13.3109 2.76905C13.4517 2.9235 13.5467 3.10159 13.5886 3.28979C13.6181 3.44322 13.593 3.60017 13.5162 3.74273C13.4395 3.8853 13.3142 4.00774 13.1546 4.09608C12.6538 4.37793 12.0936 4.58521 11.5008 4.70796C11.401 4.73443 11.3543 4.68929 11.3093 4.63288C11.2511 4.55761 11.1695 4.49574 11.0723 4.45336C10.9752 4.41098 10.866 4.38955 10.7553 4.39117C10.4933 4.38379 10.2312 4.36036 9.96916 4.35949C9.06488 4.35544 8.1606 4.35616 7.25631 4.36166C6.9948 4.36166 6.73274 4.38856 6.47122 4.40506C6.35348 4.4133 6.21729 4.43543 6.16629 4.51962C6.01329 4.77088 5.79355 4.70448 5.5597 4.6255C5.48699 4.60077 5.40941 4.58471 5.33508 4.56258C4.94681 4.4583 4.5792 4.31012 4.24343 4.12255C4.02295 4.00756 3.86345 3.83139 3.79563 3.62798C3.72782 3.42456 3.75648 3.20827 3.87611 3.02074C4.01734 2.78194 4.20896 2.56439 4.44255 2.37762C5.10558 1.84939 5.84573 1.38694 6.64701 1.00025C6.72172 0.975321 6.78633 0.934312 6.83365 0.881782C6.80778 0.873114 6.77991 0.868905 6.75186 0.869428C6.72382 0.869952 6.69622 0.875196 6.67088 0.88482C6.04865 1.00976 5.43627 1.16423 4.837 1.34741C4.07627 1.56515 3.36517 1.88089 2.73183 2.28215C2.28058 2.54018 1.9682 2.92526 1.85748 3.35999C1.74676 3.79472 1.84591 4.24686 2.135 4.6255C2.459 5.08087 2.87687 5.48919 3.37097 5.8332C3.40895 5.86184 3.47949 5.88006 3.46213 5.93127C3.44693 5.97467 3.37965 5.96555 3.33354 5.97467C2.85881 6.06742 2.39078 6.18085 1.93154 6.31445C1.68141 6.38866 1.6673 6.43726 1.8827 6.554C2.33472 6.80707 2.84796 6.98165 3.38942 7.0665C3.76665 7.09096 4.1461 7.05193 4.50332 6.95193C4.54889 6.94325 4.59881 6.90854 4.64113 6.94065C4.68345 6.97276 4.64818 7.01789 4.62648 7.04784C4.59657 7.08513 4.5845 7.12981 4.59247 7.17365C4.60044 7.2175 4.62793 7.25757 4.66989 7.28651C4.72947 7.34243 4.78387 7.40175 4.83266 7.464C5.39662 8.17041 5.76923 8.96351 5.92648 9.79216C5.97222 9.93919 5.97252 10.0929 5.92733 10.24C5.88214 10.3872 5.79284 10.5233 5.66713 10.6366C5.60894 10.6905 5.5673 10.7545 5.54554 10.8235C5.52378 10.8925 5.52249 10.9647 5.54179 11.0341C5.59371 11.2353 5.67285 11.4313 5.77781 11.6187C5.93516 11.9346 6.14459 12.2067 6.63616 12.224C6.7024 12.2336 6.76575 12.2532 6.8228 12.2818C6.88207 12.3022 6.93463 12.3334 6.97641 12.3727C7.01819 12.4121 7.04806 12.4586 7.0637 12.5087C7.09535 12.6036 7.15731 12.6903 7.24348 12.7603C7.32966 12.8303 7.4371 12.8812 7.55527 12.908C7.79977 12.9715 8.05508 13.0044 8.31216 13.0056C8.77528 13.0418 9.2427 13.0169 9.69571 12.9318C9.81521 12.9207 9.92891 12.8845 10.0253 12.8269C10.1216 12.7693 10.1972 12.6923 10.2442 12.6038C10.2803 12.4944 10.3583 12.3969 10.4671 12.3247C10.576 12.2526 10.7104 12.2095 10.8514 12.2015C10.9702 12.1935 11.0844 12.1607 11.1824 12.1063C11.2803 12.0519 11.3587 11.9779 11.4097 11.8916C11.5636 11.6478 11.6907 11.3937 11.7895 11.1322C11.8301 11.0445 11.8398 10.9495 11.8175 10.8577C11.7952 10.7658 11.7418 10.6807 11.6631 10.6115C11.5444 10.5083 11.4604 10.3827 11.419 10.2464C11.3776 10.1102 11.3802 9.96775 11.4265 9.83252C11.465 9.70233 11.4808 9.57215 11.5144 9.44196C11.7015 8.65158 12.1096 7.90524 12.7081 7.25874C12.7369 7.23396 12.7556 7.20275 12.7617 7.16927C12.7678 7.13578 12.761 7.1016 12.7422 7.07127C12.7205 7.03004 12.6587 6.98448 12.7194 6.94108C12.7661 6.9068 12.8236 6.94542 12.8746 6.95497C13.1986 7.0441 13.5403 7.08485 13.8827 7.07517C14.4647 7.0016 15.0168 6.81933 15.4942 6.54315C15.6857 6.44377 15.6754 6.38909 15.4632 6.32443ZM6.92535 11.666C6.80924 11.6661 6.6957 11.6386 6.5991 11.5871C6.5025 11.5356 6.42717 11.4623 6.38264 11.3765C6.33811 11.2908 6.32637 11.1964 6.34892 11.1053C6.37147 11.0142 6.42728 10.9305 6.50931 10.8647C6.59133 10.799 6.69589 10.7542 6.80974 10.736C6.9236 10.7178 7.04165 10.727 7.14896 10.7625C7.25627 10.7979 7.34803 10.858 7.41263 10.9352C7.47722 11.0124 7.51176 11.1031 7.51187 11.196C7.51187 11.3205 7.45011 11.4399 7.34014 11.528C7.23018 11.6161 7.081 11.6657 6.92535 11.666ZM6.41208 7.17846C6.00758 7.06193 5.66901 6.83288 5.45824 6.53317C5.66893 6.42496 5.90996 6.36037 6.15963 6.34522C6.4093 6.33007 6.65976 6.36483 6.88845 6.44637C7.62201 6.73973 7.65836 7.06259 7.65836 7.06259C7.27229 7.2156 6.83174 7.25656 6.41208 7.17846ZM4.94714 5.82929C4.94714 5.82929 7.14726 5.06683 8.2107 6.76793C8.20853 6.76967 6.70506 5.68479 4.94497 5.82929H4.94714ZM10.4108 11.666C10.2946 11.6663 10.1809 11.6391 10.0841 11.5877C9.98731 11.5364 9.91173 11.4632 9.86695 11.3774C9.82217 11.2917 9.8102 11.1972 9.83256 11.1061C9.85492 11.0149 9.91061 10.9311 9.99257 10.8652C10.0745 10.7993 10.1791 10.7544 10.293 10.7361C10.4069 10.7178 10.525 10.7269 10.6324 10.7624C10.7398 10.7978 10.8317 10.8579 10.8964 10.9351C10.961 11.0123 10.9956 11.1031 10.9957 11.196C10.9958 11.2577 10.9806 11.3188 10.9512 11.3758C10.9217 11.4328 10.8785 11.4847 10.824 11.5283C10.7694 11.5719 10.7047 11.6066 10.6334 11.6302C10.5622 11.6538 10.4858 11.666 10.4086 11.666H10.4108ZM10.7277 7.17238C10.3072 7.25015 9.86608 7.20858 9.47977 7.05478C9.47977 7.05478 9.51612 6.73235 10.2497 6.439C10.4783 6.35734 10.7288 6.32251 10.9785 6.33766C11.2282 6.35282 11.4693 6.41747 11.6799 6.52579C11.4693 6.82607 11.1305 7.05562 10.7255 7.17238H10.7277ZM8.93123 6.76143C9.99466 5.06033 12.1948 5.82322 12.1948 5.82322C10.4325 5.67654 8.92906 6.76143 8.92906 6.76143H8.93123Z" fill="#FF0004"/>
</svg>
