<svg width="48" height="49" viewBox="0 0 48 49" fill="none" xmlns="http://www.w3.org/2000/svg">
<path d="M23.7682 0C17.3112 0 16.5051 0.0301613 13.9698 0.144774C11.4385 0.265419 9.71526 0.66958 8.20004 1.26677C6.63728 1.88206 5.31022 2.70848 3.9891 4.04965C2.66798 5.39082 1.85194 6.73601 1.24783 8.32451C0.659568 9.86273 0.25947 11.6121 0.142609 14.1818C0.0237682 16.7556 0 17.574 0 24.129C0 30.6841 0.0297103 31.5024 0.142609 34.0762C0.26145 36.6439 0.659568 38.3953 1.24783 39.9335C1.85392 41.518 2.66798 42.8672 3.9891 44.2084C5.31022 45.5475 6.6353 46.378 8.20004 46.9912C9.71724 47.5864 11.4404 47.9946 13.9698 48.1132C16.5051 48.2339 17.3112 48.258 23.7682 48.258C30.2253 48.258 31.0314 48.2279 33.5667 48.1132C36.096 47.9926 37.8212 47.5864 39.3364 46.9912C40.8972 46.376 42.2262 45.5475 43.5473 44.2084C44.8665 42.8672 45.6845 41.524 46.2886 39.9335C46.8749 38.3953 47.277 36.6439 47.3938 34.0762C47.5127 31.5024 47.5364 30.6841 47.5364 24.129C47.5364 17.574 47.5067 16.7556 47.3938 14.1818C47.275 11.6141 46.8749 9.86072 46.2886 8.32451C45.6825 6.73803 44.8665 5.39082 43.5473 4.04965C42.2262 2.70848 40.9031 1.88005 39.3364 1.26677C37.8212 0.66958 36.096 0.263408 33.5667 0.144774C31.0314 0.024129 30.2253 0 23.7682 0ZM23.7682 4.34322C30.1124 4.34322 30.869 4.37539 33.3745 4.48598C35.6919 4.59658 36.9497 4.98666 37.7855 5.32045C38.8987 5.75678 39.687 6.27958 40.5228 7.12208C41.3527 7.9666 41.8677 8.76888 42.2975 9.89893C42.6224 10.7475 43.0106 12.0243 43.1156 14.3769C43.2285 16.9225 43.2542 17.6866 43.2542 24.129C43.2542 30.5715 43.2245 31.3376 43.1076 33.8812C42.9868 36.2337 42.6006 37.5106 42.2738 38.3591C41.8301 39.4891 41.325 40.2894 40.4931 41.138C39.6632 41.9805 38.861 42.5033 37.7598 42.9396C36.9279 43.2693 35.6504 43.6635 33.333 43.77C30.8096 43.8846 30.0668 43.9108 23.7088 43.9108C17.3488 43.9108 16.6061 43.8806 14.0847 43.762C11.7653 43.6393 10.4877 43.2472 9.65584 42.9155C8.52883 42.465 7.75438 41.9523 6.92448 41.1078C6.09061 40.2653 5.5578 39.4509 5.14186 38.333C4.81505 37.4884 4.43079 36.1915 4.30997 33.8389C4.22084 31.3054 4.18915 30.5232 4.18915 24.0988C4.18915 17.6725 4.22084 16.8883 4.30997 14.3246C4.43079 11.972 4.81505 10.6771 5.14186 9.83257C5.5578 8.68644 6.09061 7.90225 6.92448 7.05573C7.75438 6.21322 8.52883 5.67032 9.65584 5.25007C10.4877 4.91629 11.7375 4.52419 14.0549 4.40354C16.5803 4.31306 17.3231 4.2829 23.6791 4.2829L23.7682 4.34322ZM23.7682 11.7388C17.024 11.7388 11.5632 17.2884 11.5632 24.129C11.5632 30.9756 17.0299 36.5193 23.7682 36.5193C30.5125 36.5193 35.9732 30.9696 35.9732 24.129C35.9732 17.2824 30.5065 11.7388 23.7682 11.7388ZM23.7682 32.172C19.3909 32.172 15.8455 28.5728 15.8455 24.129C15.8455 19.6853 19.3909 16.086 23.7682 16.086C28.1455 16.086 31.691 19.6853 31.691 24.129C31.691 28.5728 28.1455 32.172 23.7682 32.172ZM39.3087 11.2502C39.3087 12.8487 38.0292 14.1456 36.4565 14.1456C34.8818 14.1456 33.6043 12.8467 33.6043 11.2502C33.6043 9.65361 34.8838 8.35668 36.4565 8.35668C38.0272 8.35467 39.3087 9.65361 39.3087 11.2502Z" fill="white"/>
</svg>
