<svg width="44" height="44" viewBox="0 0 44 44" fill="none" xmlns="http://www.w3.org/2000/svg">
<path d="M24.7317 10.0467C26.7483 10.0467 28.3983 8.39665 28.3983 6.37998C28.3983 4.36332 26.7483 2.71332 24.7317 2.71332C22.715 2.71332 21.065 4.36332 21.065 6.37998C21.065 8.39665 22.715 10.0467 24.7317 10.0467ZM18.1317 35.53L19.965 27.4633L23.815 31.13V42.13H27.4817V28.38L23.6317 24.7133L24.7317 19.2133C27.115 21.9633 30.7817 23.7967 34.815 23.7967V20.13C31.3317 20.13 28.3983 18.2967 26.9317 15.73L25.0983 12.7967C24.365 11.6967 23.265 10.9633 21.9817 10.9633C21.4317 10.9633 21.065 11.1467 20.515 11.1467L10.9817 15.18V23.7967H14.6483V17.5633L17.9483 16.28L15.015 31.13L6.03167 29.2967L5.29833 32.9633L18.1317 35.53Z" fill="url(#paint0_linear_615_118)"/>
<defs>
<linearGradient id="paint0_linear_615_118" x1="20.0567" y1="2.71332" x2="20.0567" y2="42.13" gradientUnits="userSpaceOnUse">
<stop stop-color="#3C88C4"/>
<stop offset="1" stop-color="#142C40"/>
</linearGradient>
</defs>
</svg>
