<svg width="43" height="31" viewBox="0 0 43 31" fill="none" xmlns="http://www.w3.org/2000/svg">
<path fill-rule="evenodd" clip-rule="evenodd" d="M0 4.52083C0 2.02533 2.107 0 4.70312 0H38.2969C40.893 0 43 2.02533 43 4.52083V26.4792C43 27.6782 42.5045 28.8281 41.6225 29.6759C40.7405 30.5237 39.5442 31 38.2969 31H4.70312C3.45578 31 2.25952 30.5237 1.37751 29.6759C0.495506 28.8281 0 27.6782 0 26.4792L0 4.52083ZM4.70312 3.875C4.52493 3.875 4.35404 3.94304 4.22804 4.06416C4.10204 4.18528 4.03125 4.34955 4.03125 4.52083V26.4792C4.03125 26.8357 4.33225 27.125 4.70312 27.125H38.2969C38.4751 27.125 38.646 27.057 38.772 26.9358C38.898 26.8147 38.9688 26.6505 38.9688 26.4792V4.52083C38.9688 4.34955 38.898 4.18528 38.772 4.06416C38.646 3.94304 38.4751 3.875 38.2969 3.875H4.70312ZM9.40625 10.9792C9.40625 10.4653 9.61861 9.9725 9.99661 9.60915C10.3746 9.2458 10.8873 9.04167 11.4219 9.04167H30.2344C30.769 9.04167 31.2816 9.2458 31.6596 9.60915C32.0376 9.9725 32.25 10.4653 32.25 10.9792C32.25 11.493 32.0376 11.9858 31.6596 12.3492C31.2816 12.7125 30.769 12.9167 30.2344 12.9167H11.4219C10.8873 12.9167 10.3746 12.7125 9.99661 12.3492C9.61861 11.9858 9.40625 11.493 9.40625 10.9792ZM11.4219 16.7917C10.8873 16.7917 10.3746 16.9958 9.99661 17.3591C9.61861 17.7225 9.40625 18.2153 9.40625 18.7292C9.40625 19.243 9.61861 19.7358 9.99661 20.0992C10.3746 20.4625 10.8873 20.6667 11.4219 20.6667H22.1719C22.7065 20.6667 23.2191 20.4625 23.5971 20.0992C23.9751 19.7358 24.1875 19.243 24.1875 18.7292C24.1875 18.2153 23.9751 17.7225 23.5971 17.3591C23.2191 16.9958 22.7065 16.7917 22.1719 16.7917H11.4219Z" fill="url(#paint0_linear_615_115)"/>
<defs>
<linearGradient id="paint0_linear_615_115" x1="21.5" y1="0" x2="21.5" y2="31" gradientUnits="userSpaceOnUse">
<stop stop-color="#3C88C4"/>
<stop offset="1" stop-color="#142C40"/>
</linearGradient>
</defs>
</svg>
