<svg width="31" height="30" viewBox="0 0 31 30" fill="none" xmlns="http://www.w3.org/2000/svg">
<path d="M6.02078 15.6874C6.01153 15.655 6.01284 15.6205 6.02453 15.5888C6.03622 15.5572 6.05771 15.5298 6.08601 15.5107C6.21647 15.4181 6.3819 15.3256 6.47643 15.4329L6.48399 15.4403L6.49156 15.4477C6.52217 15.4819 6.56002 15.5091 6.60246 15.5275C6.64491 15.5459 6.69094 15.555 6.73734 15.5542C6.90922 15.5359 7.0727 15.4719 7.21001 15.3691C7.3261 15.308 7.42305 15.2172 7.49048 15.1064C7.55792 14.9955 7.59331 14.8688 7.59286 14.7398V14.7259C7.59286 14.7185 7.59286 14.613 7.6874 14.5917C7.70582 14.5905 7.72429 14.593 7.74169 14.5991C7.75909 14.6051 7.77503 14.6146 7.78855 14.6269C7.84394 14.6867 7.88553 14.7575 7.91048 14.8345C7.93544 14.9115 7.94318 14.9928 7.93318 15.073C7.91479 15.2448 7.8619 15.4115 7.77754 15.5633C7.69319 15.7151 7.57902 15.8491 7.44161 15.9576C7.41987 15.9789 7.39813 15.9928 7.37638 16.0141C7.19583 16.1557 7.02189 16.2825 6.86307 16.3889C6.63903 16.5092 6.43673 16.325 6.33558 16.2038C6.28795 16.1416 6.24223 16.078 6.19851 16.0132L6.18433 15.9845C6.12576 15.8884 6.07274 15.7893 6.02551 15.6874H6.02078ZM5.29383 17.8307L5.35906 17.8732C5.38806 17.8941 5.41987 17.9109 5.45359 17.9232C5.55074 17.9533 5.65571 17.9484 5.74948 17.9093L5.85819 17.888C5.68894 17.735 5.55378 17.5495 5.46115 17.343C5.45681 17.5182 5.3979 17.6881 5.29383 17.8307ZM7.34991 5.30255C7.34235 5.29515 7.34991 5.29515 7.34991 5.30255C7.2679 5.20319 7.19543 5.09662 7.13343 4.98421C7.15518 5.17485 7.1911 5.3664 7.22797 5.53945C7.24215 5.60331 7.24971 5.65976 7.26389 5.71621C7.32912 5.64588 7.39434 5.58202 7.45296 5.51817C7.43586 5.44101 7.4013 5.36859 7.3518 5.30625L7.34991 5.30255ZM4.22088 16.239C4.22786 16.2184 4.23044 16.1967 4.22844 16.1751V16.1538C4.22391 16.0711 4.22644 15.9881 4.23601 15.9058C4.24467 15.7936 4.26397 15.6823 4.29367 15.5736C4.29321 15.5697 4.29366 15.5658 4.29497 15.5621C4.29628 15.5584 4.29842 15.5551 4.30123 15.5523C4.31051 15.5249 4.3131 15.4957 4.3088 15.4672C4.22678 15.4083 4.13981 15.3563 4.04883 15.3117C4.0598 15.4577 4.0598 15.6043 4.04883 15.7503V15.8003C4.03894 15.8746 4.04762 15.9501 4.07413 16.0204C4.10064 16.0907 4.14419 16.1536 4.20103 16.2038C4.20103 16.2177 4.21521 16.2251 4.22277 16.239H4.22088ZM20.299 8.90329C20.3861 8.90323 20.4731 8.89611 20.559 8.88201C20.696 8.83944 20.7906 8.81816 20.8048 8.81168C21.1566 8.7216 21.4864 8.56308 21.7743 8.34559C22.0623 8.12809 22.3026 7.85607 22.4808 7.54573C22.6304 7.16529 22.6849 6.75534 22.6396 6.35011C22.6335 6.28675 22.631 6.22311 22.6321 6.15947C22.7595 5.59892 23.017 5.07458 23.3846 4.62701C23.5849 4.37128 23.7289 4.07762 23.8073 3.76461C23.8858 3.4516 23.897 3.12606 23.8402 2.80859C23.8005 2.69085 23.7372 2.58202 23.6542 2.48845C23.5711 2.39487 23.4698 2.31841 23.3562 2.26353H23.3496C23.2214 2.20592 23.0886 2.15857 22.9525 2.12194C22.7285 2.06452 22.4978 2.0359 22.2662 2.0368C21.7439 2.05967 21.2315 2.18384 20.7586 2.40211C20.2857 2.62038 19.8619 2.9284 19.5115 3.30831C19.5115 3.31571 19.504 3.32219 19.4974 3.32959C19.2688 3.60034 19.1027 3.91621 19.0104 4.2556C18.918 4.595 18.9016 4.94991 18.9623 5.29607C19.097 5.88689 19.4628 6.40251 19.9814 6.7323C20.0165 6.75478 20.0441 6.78681 20.0609 6.82445C20.0777 6.86209 20.0829 6.90372 20.0759 6.94422C20.0708 6.98387 20.0546 7.02138 20.0291 7.05258C20.0035 7.08377 19.9697 7.10744 19.9313 7.12097C19.9237 7.12097 19.2374 7.37545 19.0928 7.80669C19.0664 7.90163 19.0631 8.0013 19.0831 8.09772C19.1031 8.19413 19.1459 8.28462 19.2081 8.36193C19.3423 8.52023 19.5085 8.64969 19.6962 8.74221C19.884 8.83472 20.0892 8.8883 20.299 8.89959V8.90329ZM5.23238 14.0319C5.40031 14.0071 5.55923 13.9416 5.69465 13.8412C5.97933 13.666 6.29577 13.546 6.62674 13.4877H6.64092C6.69043 13.4776 6.7348 13.4509 6.76637 13.4123C6.79795 13.3736 6.81476 13.3253 6.81391 13.2758V13.2545C6.81064 13.2154 6.796 13.1779 6.77171 13.1466C6.74743 13.1153 6.71451 13.0914 6.67684 13.0778C6.66928 13.0778 6.66266 13.0704 6.6551 13.0704C6.57166 13.0414 6.48367 13.027 6.39513 13.0278H6.38852C6.29467 13.0267 6.20152 13.0437 6.11437 13.0778C6.05198 13.1003 5.98612 13.1122 5.91963 13.1129H5.87615C5.81605 13.1058 5.75759 13.0889 5.70315 13.063C5.65802 13.0414 5.60873 13.0294 5.55852 13.0278C5.539 13.0268 5.51945 13.0293 5.50085 13.0352C5.37486 13.0732 5.26051 13.1412 5.1681 13.2333C5.16431 13.2371 5.15934 13.2397 5.15392 13.2407H5.14636C5.05939 13.311 4.9658 13.3896 4.87221 13.46L4.82873 13.5025C4.8256 13.5047 4.82301 13.5076 4.82116 13.5109L4.80698 13.5322C4.78708 13.5728 4.78057 13.6185 4.78836 13.6629C4.79615 13.7074 4.81786 13.7483 4.85047 13.7802L4.87221 13.8014L4.89395 13.8227C5.05277 13.9643 5.12556 14.0282 5.23333 14.0282L5.23238 14.0319ZM15.8692 26.8709C15.8768 26.8709 15.8834 26.8635 15.8909 26.8635C16.9944 26.4304 18.0519 25.8926 19.0483 25.2579L19.0918 25.2292C19.1214 25.2094 19.146 25.1831 19.1635 25.1524C19.181 25.1218 19.1911 25.0876 19.193 25.0525V25.0312C19.1939 25.019 19.1913 25.0068 19.1854 24.996C19.1854 24.9886 19.1778 24.9822 19.1778 24.9748L19.1703 24.9609C18.7518 23.6406 18.7018 22.2347 19.0256 20.8891C19.13 20.3906 19.1879 19.8839 19.1986 19.3752V19.3252C19.1932 19.2721 19.1682 19.2228 19.1284 19.1864C19.0886 19.1499 19.0366 19.1289 18.9822 19.1271C18.9485 19.1271 18.9154 19.1348 18.8854 19.1496C18.8553 19.1644 18.8292 19.1859 18.8092 19.2123L18.8016 19.2262V19.2336L18.7874 19.2474C18.6587 19.4772 18.5164 19.6994 18.3611 19.9128C16.634 22.3392 15.336 24.376 15.579 26.6969C15.5848 26.7492 15.6101 26.7976 15.65 26.8327C15.69 26.8679 15.7417 26.8874 15.7955 26.8876C15.82 26.8863 15.8442 26.8816 15.8673 26.8737L15.8692 26.8709ZM12.6466 27.7482L12.6825 27.7408C13.4582 27.623 14.2223 27.4406 14.9664 27.1957L14.9806 27.1883H14.9882C14.9957 27.1883 15.0023 27.1809 15.0099 27.1809C15.0488 27.1637 15.0818 27.1358 15.1049 27.1007C15.128 27.0656 15.1403 27.0247 15.1404 26.9829V26.969L15.1328 26.9403C14.7783 24.3936 16.1519 22.2291 17.9688 19.6685C19.1325 18.0342 18.8196 17.2421 18.4821 16.7896C18.3289 16.6031 18.1337 16.4537 17.9119 16.353C17.6901 16.2524 17.4475 16.2032 17.2031 16.2093C16.9402 16.2132 16.6794 16.2563 16.4298 16.3371C16.1916 16.4148 15.9458 16.4854 15.6924 16.549C15.2536 16.6462 14.8095 16.7194 14.3624 16.7683C13.4093 16.8369 12.4786 17.0841 11.6209 17.4966L11.6067 17.5105H11.5925C11.5131 17.5456 11.4403 17.5882 11.3609 17.6234H11.3534C11.3458 17.6308 11.3316 17.6308 11.3241 17.6372H11.3165C11.296 17.6501 11.2786 17.6672 11.2655 17.6872C11.2615 17.6909 11.2588 17.6958 11.2579 17.7011V17.7085L11.2437 17.7224C11.2296 17.7513 11.2222 17.7829 11.222 17.8149C11.2221 17.8471 11.2293 17.8788 11.243 17.908C11.2567 17.9372 11.2766 17.9632 11.3014 17.9843H11.3524V18.0194C11.74 18.332 12.0515 18.7253 12.2641 19.1707C12.4767 19.6161 12.5851 20.1023 12.5814 20.5939C12.6403 21.9426 12.5847 23.2937 12.415 24.6333V24.6472C12.2407 25.6126 12.2286 26.5994 12.3791 27.5687V27.5825C12.3803 27.6 12.3852 27.6169 12.3932 27.6325C12.4109 27.6706 12.4393 27.7029 12.4752 27.7255C12.5111 27.7482 12.5528 27.7602 12.5955 27.7602C12.6113 27.7521 12.6287 27.7473 12.6466 27.7463V27.7482ZM6.54828 6.41303L6.56246 6.39915V6.39175C6.66361 6.27145 6.75719 6.15855 6.85173 6.05953L6.86591 6.04565C6.89753 6.00763 6.91547 5.96047 6.91695 5.91147V5.8689C6.90277 5.78376 6.88765 5.69215 6.86591 5.61441C6.71777 5.12742 6.71777 4.60873 6.86591 4.12174C6.87448 3.87775 6.89847 3.63452 6.93775 3.39344V3.37864C6.95949 3.24445 6.98124 3.11027 6.99542 2.97516C7.02759 2.80771 7.02501 2.63562 6.98782 2.46917C6.95063 2.30271 6.87959 2.14528 6.77894 2.00627C6.73157 1.95535 6.67349 1.91508 6.60871 1.88824C6.54392 1.8614 6.47396 1.84863 6.40364 1.8508H6.3819C6.33016 1.84666 6.27811 1.85335 6.22921 1.87042C6.18031 1.88749 6.13569 1.91456 6.0983 1.94982C6.00766 2.08652 5.94861 2.24096 5.92531 2.40234C5.87727 2.67326 5.86267 2.94884 5.88182 3.22317C5.95367 3.93758 5.93949 4.0292 5.88182 4.18559C5.81944 4.37009 5.79251 4.56431 5.80241 4.75841C5.82522 5.14587 5.90876 5.52758 6.05009 5.89018V5.89758C6.09357 6.03177 6.13706 6.17521 6.17298 6.31494C6.17298 6.32234 6.18054 6.33623 6.18054 6.34363V6.35103C6.19702 6.39249 6.22583 6.42816 6.26325 6.4534C6.30066 6.47864 6.34496 6.49231 6.39041 6.49262C6.45048 6.48402 6.50615 6.45677 6.54922 6.41489L6.54828 6.41303ZM6.8158 8.93846C6.8158 8.93106 6.82337 8.91717 6.82337 8.90977V8.90329C6.85929 8.64881 6.88859 8.30918 6.91034 7.80021C6.9197 7.64128 6.93896 7.48305 6.968 7.32641L6.98974 7.23387C6.98974 7.21999 6.99731 7.20518 6.99731 7.1913V7.17001C6.99184 7.11694 6.96688 7.06761 6.92707 7.03119C6.88726 6.99476 6.83529 6.97373 6.78083 6.97198C6.7493 6.97176 6.71814 6.97866 6.68978 6.99214C6.66142 7.00562 6.63661 7.02532 6.61729 7.04971C6.6133 7.05342 6.61065 7.05829 6.60972 7.06359V7.07099C6.53032 7.17001 6.47927 7.23387 6.46509 7.24775L6.45753 7.25515C6.37958 7.34267 6.31408 7.44011 6.26279 7.5448C6.17429 7.71912 6.10398 7.90173 6.05293 8.08986V8.09727C6.02394 8.21017 5.99495 8.33047 5.96596 8.45817C5.96629 8.53582 5.98889 8.61181 6.03118 8.67749C6.14513 8.84863 6.30508 8.98568 6.49345 9.07357L6.50101 9.08097C6.50857 9.08837 6.51519 9.08837 6.52275 9.09485C6.55209 9.1091 6.58455 9.11609 6.61729 9.11521C6.66491 9.10819 6.70941 9.08774 6.74534 9.05634C6.78127 9.02495 6.80707 8.98398 6.81959 8.93846H6.8158ZM7.87835 5.0055L7.89253 4.99162C8.10151 4.81601 8.32905 4.66276 8.57128 4.53447H8.57884C8.61216 4.51597 8.63977 4.48902 8.65873 4.45644C8.6777 4.42386 8.68733 4.38688 8.68661 4.34939V4.32625C8.68046 4.28252 8.66287 4.24108 8.63556 4.20595C8.39901 3.90345 8.20241 3.57294 8.0504 3.22225L8.03528 3.19448C7.98551 3.09869 7.93729 3.00212 7.89064 2.90483L7.8689 2.86226C7.85044 2.82696 7.82262 2.79717 7.78836 2.776C7.7541 2.75484 7.71466 2.74308 7.67416 2.74196C7.64054 2.74196 7.60739 2.74966 7.57735 2.76444C7.54731 2.77923 7.52122 2.80068 7.50117 2.8271C7.49718 2.83081 7.49453 2.83568 7.4936 2.84098V2.84838L7.47942 2.86226C7.46556 2.88595 7.45808 2.9127 7.45768 2.94L7.45012 3.01033C7.43555 3.15248 7.41631 3.29414 7.39245 3.43509C7.35173 3.66883 7.32772 3.90508 7.32061 4.1421C7.31966 4.42172 7.40391 4.69527 7.56261 4.92776V4.93517C7.56261 4.94257 7.57018 4.94257 7.57679 4.94905C7.59724 4.9755 7.62368 4.99695 7.65402 5.01173C7.68436 5.0265 7.71779 5.03418 7.75168 5.03418C7.77281 5.04151 7.79565 5.04269 7.81745 5.0376C7.83926 5.03252 7.85909 5.02136 7.87457 5.0055H7.87835ZM7.94074 13.1759C8.26092 12.4492 8.67385 11.7651 9.16967 11.14C9.34266 10.8994 9.5166 10.6773 9.63193 10.482C10.1997 9.57079 10.681 8.61053 11.0698 7.61328C11.0698 7.60588 11.0773 7.5994 11.0773 7.592C11.3988 6.78552 11.9583 6.09097 12.6844 5.59683C13.3428 5.21163 14.0918 4.99964 14.8586 4.98144H14.8728C15.1593 4.97749 15.4372 4.88591 15.6678 4.71955H15.6754L15.6896 4.70567H15.6972C15.7113 4.69178 15.7331 4.67698 15.7406 4.6631C15.7723 4.62508 15.7902 4.57792 15.7917 4.52891V4.50393C15.7873 4.45488 15.7655 4.40888 15.7301 4.3739C15.6947 4.33891 15.648 4.31715 15.5979 4.31237L15.5327 4.30497C15.2447 4.27561 14.9553 4.2614 14.6658 4.2624C13.9751 4.26748 13.286 4.32939 12.6059 4.44748C12.3621 4.48583 12.1155 4.50471 11.8686 4.50393C11.6521 4.50393 11.4422 4.49005 11.2324 4.48264C11.0225 4.47524 10.8202 4.46136 10.6179 4.46136C10.5309 4.46136 10.4591 4.46136 10.3863 4.46876C10.1627 4.4777 9.94073 4.51091 9.72458 4.56778L9.66691 4.58166H9.65935C9.20512 4.74427 8.79296 5.00264 8.45203 5.33846C8.1111 5.67428 7.84974 6.07935 7.68645 6.52501C7.68661 6.52602 7.68653 6.52705 7.68621 6.52802C7.68588 6.52899 7.68533 6.52987 7.68459 6.53059C7.68386 6.53131 7.68295 6.53185 7.68196 6.53217C7.68097 6.53249 7.67992 6.53257 7.67889 6.53241C7.50425 6.93722 7.40101 7.36809 7.37355 7.80669C7.38544 8.42513 7.2951 9.04138 7.10602 9.63158V9.64547L7.09184 9.65935C7.02 9.8361 6.93303 10.0064 6.82431 10.2257L6.80257 10.2757C6.65037 10.5653 6.44807 10.9049 6.24577 11.2381L6.18811 11.3306C6.1588 11.3732 6.13706 11.4158 6.1087 11.4583C5.9357 11.748 5.76176 12.045 5.65305 12.2718V12.2856L5.63887 12.2995C5.63794 12.3048 5.63529 12.3097 5.63131 12.3134C5.62318 12.3361 5.6184 12.3597 5.61713 12.3837C5.61655 12.4265 5.62938 12.4684 5.65389 12.5038C5.6784 12.5392 5.71341 12.5664 5.7542 12.5818C5.76176 12.5818 5.76838 12.5892 5.77594 12.5892L5.79012 12.5966C5.81943 12.6105 5.84779 12.6179 5.87709 12.6317C5.89078 12.6385 5.90544 12.6432 5.92058 12.6456C5.93837 12.6444 5.95572 12.6396 5.97163 12.6317H5.97919C6.11408 12.5874 6.25569 12.5658 6.39797 12.5679H6.40553C6.63248 12.5668 6.85519 12.628 7.04835 12.7446C7.24435 12.8825 7.4216 13.0442 7.57585 13.2258C7.59691 13.2506 7.62338 13.2705 7.65332 13.284C7.68326 13.2974 7.7159 13.3041 7.74884 13.3036C7.79124 13.3068 7.83353 13.296 7.86887 13.2728C7.9042 13.2497 7.93052 13.2155 7.94358 13.1759H7.94074ZM8.56939 15.4468C8.58357 15.4468 8.59113 15.4394 8.59869 15.4394H8.60625C8.84937 15.4145 9.08111 15.3258 9.27697 15.1826C9.47282 15.0395 9.62552 14.8471 9.7189 14.626C9.98352 13.9579 10.1913 13.2695 10.34 12.5679L10.3986 12.3412C10.566 11.3014 10.9766 10.3136 11.5982 9.45483L11.6058 9.44743C11.6279 9.41996 11.6519 9.39399 11.6776 9.3697L11.6918 9.35581L11.706 9.34193C12.0269 9.06666 12.4433 8.92226 12.8697 8.93846C13.1116 8.94106 13.3521 8.97435 13.5853 9.03748H13.5929C13.6363 9.05136 13.6798 9.05876 13.7233 9.07264C13.9673 9.15468 14.2219 9.20235 14.4796 9.21423C14.7238 9.21574 14.9638 9.15173 15.1734 9.02915H15.181C16.4625 8.16784 17.3827 6.88212 17.7721 5.40897V5.40157C17.7797 5.38769 17.7797 5.3664 17.7863 5.3516L17.8005 5.31643V5.30995L17.8081 5.29607L17.8298 5.23962L17.844 5.20446C17.85 5.18626 17.8526 5.16712 17.8516 5.14801V5.1258C17.8481 5.08957 17.8352 5.05482 17.8139 5.02497C17.7927 4.99512 17.7638 4.97118 17.7303 4.95551C17.6968 4.93984 17.6596 4.93296 17.6225 4.93556C17.5855 4.93816 17.5497 4.95014 17.5188 4.97033L17.5046 4.97773C16.9386 5.30689 16.2828 5.45746 15.6263 5.40897C15.3729 5.40897 15.1536 5.41638 14.9399 5.43026H14.9258C14.1791 5.42088 13.4485 5.64205 12.8375 6.06234C12.2266 6.48263 11.7665 7.08067 11.5226 7.77152C11.1248 8.79473 10.6315 9.77983 10.0488 10.7143C9.92593 10.9123 9.75294 11.1455 9.57616 11.3861L9.54024 11.4C8.88985 12.2847 8.00786 13.5007 8.24703 14.4279V14.4418C8.30861 14.6522 8.33291 14.8712 8.31887 15.0896V15.1035C8.3177 15.1369 8.31295 15.1701 8.30469 15.2025V15.2312C8.30494 15.2893 8.32863 15.3449 8.37059 15.386C8.41255 15.4271 8.46939 15.4503 8.52874 15.4505C8.54243 15.4447 8.55733 15.4422 8.57222 15.4431L8.56939 15.4468ZM18.5057 9.7741L18.5199 9.76669H18.5341C18.7529 9.63017 18.9799 9.50656 19.2138 9.39653C19.2213 9.39653 19.228 9.38913 19.2431 9.38265C19.2774 9.36384 19.3058 9.33606 19.325 9.3024C19.3442 9.26874 19.3535 9.23053 19.3518 9.19202V9.17258C19.3485 9.14323 19.3391 9.11485 19.3242 9.08921C19.3092 9.06358 19.289 9.04124 19.2648 9.0236C19.1006 8.91086 18.9566 8.77235 18.8385 8.61364C18.7364 8.47971 18.6676 8.32433 18.6376 8.15984C18.6076 7.99535 18.6171 7.82628 18.6655 7.66603C18.7651 7.40208 18.947 7.17546 19.1854 7.01825H19.1901C19.1977 7.01825 19.1977 7.01084 19.2043 7.01084C19.2292 6.99118 19.2492 6.96638 19.2631 6.93822C19.277 6.91006 19.2844 6.87924 19.2847 6.84797V6.83039C19.2788 6.77629 19.2534 6.72603 19.2128 6.6888L19.1552 6.63883L19.1627 6.63143C18.9203 6.3788 18.7334 6.08024 18.6135 5.75415L18.5917 5.66901C18.5781 5.62466 18.5504 5.5857 18.5127 5.55776C18.475 5.52981 18.4292 5.51433 18.3819 5.51354C18.3483 5.51354 18.3151 5.52124 18.2851 5.53602C18.255 5.55081 18.2289 5.57226 18.2089 5.59868C18.2001 5.6094 18.1928 5.62123 18.1871 5.63384C18.1796 5.64125 18.1796 5.65513 18.173 5.66253C18.1663 5.66994 18.173 5.66994 18.1654 5.67641V5.69029C18.0205 6.47267 18.0033 7.27259 18.1144 8.06025V8.06765C18.1673 8.57059 18.1913 9.07604 18.1862 9.58161V9.6103C18.1866 9.63865 18.1927 9.66665 18.2042 9.69269C18.2156 9.71872 18.2323 9.74227 18.2531 9.76197C18.2739 9.78167 18.2985 9.79714 18.3255 9.80748C18.3525 9.81782 18.3813 9.82283 18.4102 9.82222C18.4392 9.80136 18.4711 9.78455 18.5048 9.77225L18.5057 9.7741ZM7.48699 19.302C8.18662 19.2748 8.84674 18.9773 9.32281 18.4747L9.35212 18.4534C9.43909 18.3831 9.52511 18.3119 9.61964 18.2415H9.62721L9.72836 18.1638L9.73592 18.1564H9.74348C10.2708 17.7468 10.8412 17.3935 11.4451 17.1024C11.9202 16.856 12.4252 16.6694 12.9481 16.5471C13.4055 16.4435 13.869 16.3678 14.3359 16.3204L14.3652 16.313C14.5316 16.2917 14.7046 16.2704 14.8785 16.2427C15.3729 16.1771 15.8593 16.0633 16.3305 15.903C17.1503 15.6743 17.8879 15.2246 18.4592 14.6053C19.0305 13.986 19.4125 13.222 19.5617 12.4004C19.651 11.4709 20.032 10.5913 20.6526 9.88237C20.696 9.8324 20.7471 9.77595 20.8114 9.70562C20.8482 9.66433 20.8687 9.61145 20.869 9.55663V9.53164C20.8636 9.47857 20.8386 9.42924 20.7988 9.39281C20.759 9.35639 20.707 9.33535 20.6526 9.3336C20.6256 9.3348 20.5989 9.33946 20.5732 9.34749L20.472 9.38265V9.37525C19.7564 9.60845 18.2977 10.1748 17.9574 10.9669C17.9499 10.9956 17.9357 11.0169 17.9281 11.0447C17.7803 11.416 17.5622 11.7566 17.2853 12.0487C16.5818 12.7785 15.6571 13.2671 14.6478 13.4424C13.7369 13.5916 12.9051 14.0401 12.2892 14.7139L12.2817 14.7213C11.793 15.2896 11.368 15.9076 11.014 16.5647C10.532 17.3646 9.76932 17.9655 8.86811 18.2554C8.43226 18.4087 7.97278 18.4875 7.50967 18.4886C7.13686 18.4948 6.76636 18.4301 6.41877 18.298H6.39608L6.3819 18.2841C6.29991 18.2486 6.21155 18.2295 6.12193 18.2277C6.03435 18.2314 5.94732 18.2432 5.86197 18.2628C5.77507 18.2884 5.68513 18.3027 5.59444 18.3054H5.52165C5.49053 18.3077 5.46027 18.3166 5.43289 18.3312C5.40551 18.3459 5.38163 18.3661 5.36284 18.3905C5.35885 18.3942 5.3562 18.3991 5.35527 18.4044V18.4118L5.34109 18.4257C5.32697 18.4546 5.31955 18.4862 5.31935 18.5182C5.31952 18.5504 5.32668 18.5821 5.34038 18.6113C5.35407 18.6405 5.37398 18.6665 5.39876 18.6876L5.40632 18.695C5.45884 18.7366 5.51445 18.7743 5.5727 18.8079C6.14404 19.1394 6.79942 19.3062 7.46335 19.2891H7.48699V19.302ZM16.8457 4.56778C16.7129 4.50511 16.575 4.45311 16.4336 4.41231C16.4099 4.40432 16.3859 4.39722 16.3617 4.39103C16.3428 4.44395 16.321 4.49584 16.2965 4.5465C16.2791 4.58446 16.2692 4.62526 16.2672 4.6668C16.2668 4.70494 16.2742 4.74277 16.2889 4.77808C16.3037 4.81339 16.3255 4.84547 16.353 4.87244C16.3806 4.89941 16.4133 4.92073 16.4494 4.93516C16.4855 4.94958 16.5241 4.95682 16.5631 4.95645C16.5826 4.95748 16.6021 4.95497 16.6207 4.94905C16.6349 4.94905 16.6425 4.94164 16.6567 4.94164C16.8254 4.89781 16.9879 4.83378 17.1407 4.75101C17.0481 4.68051 16.949 4.61856 16.8448 4.56593L16.8457 4.56778ZM19.8519 24.7203C19.8594 24.7129 19.866 24.7064 19.8736 24.7064L19.8878 24.699C20.2565 24.4371 20.6251 24.1539 20.9721 23.8661C22.4229 22.6664 23.6844 21.2631 24.7156 19.7018V19.6944C24.7231 19.687 24.7298 19.6731 24.7373 19.6657C24.7546 19.6353 24.7646 19.6015 24.7666 19.5667V19.5454C24.7627 19.5102 24.7502 19.4764 24.7301 19.4469C24.7101 19.4174 24.683 19.3931 24.6513 19.3761H24.6437C24.4165 19.2657 24.209 19.1201 24.0293 18.9448C23.113 17.8548 22.6062 16.4901 22.5933 15.0785L22.5791 14.9582C22.538 13.9262 22.2563 12.9171 21.7558 12.008C21.4722 11.6045 21.199 11.1807 20.9541 10.7421L20.9466 10.7282C20.9264 10.6972 20.8984 10.6717 20.8653 10.6544C20.8322 10.6371 20.795 10.6284 20.7575 10.6292C20.7239 10.6292 20.6907 10.6369 20.6607 10.6516C20.6306 10.6664 20.6045 10.6879 20.5845 10.7143C20.5845 10.7217 20.5769 10.7217 20.5769 10.7282L20.5628 10.7495C20.271 11.2848 20.0789 11.8667 19.9956 12.4679C19.8982 13.0807 19.6764 13.6681 19.3432 14.1954C19.01 14.7228 18.5723 15.1795 18.0557 15.5384C18.0482 15.5384 18.0482 15.5458 18.0416 15.5458L18.034 15.5532C18.0177 15.5656 18.0031 15.5799 17.9905 15.5958C17.9865 15.5995 17.9839 15.6044 17.983 15.6097V15.6171L17.9612 15.631C17.9471 15.6599 17.9397 15.6915 17.9395 15.7235C17.9394 15.7662 17.9525 15.8079 17.9769 15.8432C18.0013 15.8785 18.0361 15.9058 18.0765 15.9215L18.12 15.9428C18.4075 16.0708 18.6618 16.2606 18.864 16.4981C19.6448 17.4031 19.8689 19.0374 19.4785 20.9761C19.2545 21.9926 19.2301 23.0415 19.4066 24.0669C19.4407 24.2436 19.4843 24.4185 19.5371 24.5907C19.5371 24.5981 19.5371 24.5981 19.5446 24.6046C19.5585 24.6483 19.5864 24.6864 19.6243 24.7132C19.6621 24.7401 19.7078 24.7543 19.7545 24.7536C19.7874 24.7458 19.8192 24.734 19.849 24.7184L19.8519 24.7203ZM25.192 18.9273L25.1996 18.9134L25.2071 18.8995C25.6894 18.0808 26.0957 17.2213 26.4209 16.3315C26.4219 16.3262 26.4245 16.3213 26.4285 16.3176C26.4346 16.2969 26.4372 16.2753 26.4361 16.2538V16.2316C26.4322 16.1963 26.4197 16.1625 26.3996 16.1331C26.3795 16.1036 26.3525 16.0793 26.3207 16.0622C25.1948 15.5189 24.1768 14.7834 23.3146 13.8903L23.2853 13.8616C23.2453 13.8275 23.1936 13.8096 23.1407 13.8116C23.107 13.8116 23.0739 13.8193 23.0438 13.8341C23.0138 13.8489 22.9877 13.8703 22.9677 13.8968C22.9637 13.9005 22.961 13.9053 22.9601 13.9106V13.918L22.9459 13.9319C22.9318 13.9608 22.9244 13.9924 22.9242 14.0245V14.0532L22.9317 14.0744C22.9828 14.4067 23.0111 14.7037 23.0329 14.9166L23.0471 15.0369C23.0753 16.3262 23.5197 17.5737 24.3166 18.6006C24.4752 18.7604 24.6611 18.892 24.8659 18.9893L24.9311 19.0179C24.9585 19.0294 24.9884 19.0342 25.0181 19.0318C25.0868 19.0174 25.148 18.9797 25.1911 18.9254L25.192 18.9273ZM5.16054 17.2504V17.2217C5.15362 17.165 5.13014 17.1115 5.09292 17.0675C5.0557 17.0235 5.00631 16.9909 4.95067 16.9737C4.94671 16.9742 4.9427 16.9737 4.93894 16.9725C4.93517 16.9712 4.93175 16.9691 4.92893 16.9663C4.83978 16.9427 4.75281 16.9117 4.66897 16.8738H4.6614C4.54461 16.8188 4.43128 16.757 4.32203 16.6887C4.26172 16.6524 4.20393 16.6122 4.14904 16.5684L4.14147 16.5647C4.10504 16.5402 4.06266 16.5255 4.01858 16.5221C3.98603 16.5228 3.95408 16.5309 3.92523 16.5457C3.89637 16.5604 3.87138 16.5815 3.8522 16.6073C3.84464 16.6147 3.84464 16.6212 3.83802 16.6286C3.82321 16.6595 3.81578 16.6934 3.81628 16.7276C3.81459 16.7446 3.81719 16.7617 3.82384 16.7775C3.82384 16.7849 3.82384 16.7849 3.83141 16.7914C3.83897 16.8127 3.84559 16.8414 3.85315 16.8618C3.95022 17.1407 4.12115 17.3895 4.3485 17.5826C4.48021 17.7036 4.65207 17.7739 4.83251 17.7807C4.84669 17.7807 4.86181 17.7733 4.87599 17.7733C4.94209 17.7616 5.0014 17.7263 5.04237 17.6743C5.13737 17.5533 5.18136 17.4013 5.16526 17.2495L5.16054 17.2504ZM7.50211 14.1448V14.1309C7.49854 14.0887 7.48213 14.0485 7.455 14.0155C7.42787 13.9825 7.39127 13.9582 7.34991 13.9458H7.34235C7.22186 13.916 7.09793 13.9017 6.97367 13.9032C6.92786 13.9022 6.88202 13.9047 6.8366 13.9106C6.51462 13.9435 6.20505 14.05 5.93287 14.2216C5.72295 14.3695 5.47524 14.4576 5.21726 14.4761C5.09318 14.4648 4.97275 14.4289 4.86335 14.3705C4.75395 14.3121 4.65789 14.2325 4.58105 14.1364C4.5444 14.0968 4.49979 14.065 4.45002 14.0431C4.40024 14.0211 4.34638 14.0094 4.29178 14.0087C4.21279 14.0115 4.13536 14.031 4.0649 14.0661C4.03216 14.0879 4.0006 14.1114 3.97037 14.1364C3.95619 14.1503 3.94863 14.1651 3.93445 14.179L3.92688 14.1864C3.9229 14.1901 3.92025 14.195 3.91932 14.2003V14.2077L3.90514 14.2216C3.89102 14.2505 3.8836 14.2821 3.8834 14.3141C3.88247 14.367 3.90204 14.4183 3.93818 14.4576C3.97431 14.4969 4.02432 14.5214 4.07814 14.526H4.09232C4.2115 14.5398 4.32426 14.5863 4.41751 14.6602C4.56485 14.743 4.67491 14.877 4.72572 15.0357C4.77653 15.1944 4.76437 15.3659 4.69165 15.5162C4.67747 15.5588 4.66991 15.6014 4.65573 15.6504L4.64817 15.6717C4.62721 15.7578 4.61268 15.8454 4.60468 15.9336C4.59712 16.0113 4.59712 16.0826 4.59712 16.1455C4.59256 16.2254 4.61208 16.3048 4.65326 16.3739C4.69444 16.443 4.75546 16.4987 4.82873 16.5342L4.87221 16.5554C4.89016 16.5642 4.90985 16.5689 4.92988 16.5693C4.95774 16.5691 4.98493 16.561 5.00811 16.5459C5.03129 16.5307 5.04945 16.5093 5.06033 16.4842C5.06033 16.4768 5.06789 16.4703 5.06789 16.4629C5.06789 16.4555 5.07546 16.449 5.08207 16.4416V16.4342C5.08207 16.4268 5.08964 16.4268 5.08964 16.4203L5.10382 16.4065C5.11138 16.3991 5.118 16.3926 5.12556 16.3926C5.13312 16.3926 5.13974 16.3852 5.1473 16.3787C5.15486 16.3722 5.15486 16.3713 5.16148 16.3713C5.1681 16.3713 5.16904 16.3639 5.17566 16.3639H5.18322C5.19079 16.3639 5.19079 16.3565 5.1974 16.3565H5.31273C5.31669 16.356 5.32071 16.3565 5.32447 16.3578C5.32824 16.359 5.33166 16.3611 5.33448 16.3639H5.34204L5.35622 16.3713C5.36378 16.3713 5.3704 16.3787 5.38552 16.3852C5.40065 16.3917 5.39309 16.3926 5.3997 16.3926C5.40632 16.3926 5.41388 16.4 5.42145 16.4065L5.43563 16.4203L5.44981 16.4342C5.45737 16.4416 5.46399 16.4481 5.46399 16.4555C5.46399 16.4629 5.47155 16.4629 5.47155 16.4694V16.4768C5.47155 16.4842 5.47911 16.4842 5.47911 16.4907L5.48667 16.4981C5.48667 16.5055 5.49424 16.5055 5.49424 16.512C5.51378 16.5739 5.55717 16.626 5.61524 16.6572C5.69078 16.6966 5.77548 16.7161 5.86102 16.7137C5.92465 16.7133 5.98804 16.7062 6.05009 16.6924C6.12193 16.6711 6.1588 16.636 6.1588 16.6147C6.15888 16.5923 6.15441 16.5701 6.14564 16.5495C6.13688 16.5288 6.124 16.5101 6.10775 16.4944L6.10019 16.487C6.08651 16.4716 6.07447 16.4548 6.06427 16.437C6.02078 16.3731 5.9773 16.3241 5.91963 16.239L5.89789 16.2038C5.82053 16.0952 5.75524 15.9789 5.70315 15.8568L5.68141 15.8068C5.60865 15.6608 5.57265 15.4998 5.57643 15.3373C5.58022 15.1749 5.62367 15.0157 5.70315 14.8731C5.76402 14.7833 5.84682 14.7097 5.94405 14.6591C6.04127 14.6086 6.14985 14.5825 6.25995 14.5834H6.26751C6.37799 14.5906 6.48263 14.6346 6.56411 14.7079C6.6456 14.7813 6.69904 14.8797 6.7156 14.9869C6.72677 15.0249 6.75063 15.0581 6.78336 15.0812C6.81609 15.1044 6.85581 15.1161 6.89616 15.1146C6.92666 15.1161 6.95693 15.1087 6.98313 15.0933C6.99069 15.0859 6.99731 15.0859 7.00487 15.0794C7.01243 15.073 7.01905 15.072 7.02661 15.0655C7.18543 14.9591 7.22891 14.9314 7.24309 14.7185C7.24344 14.6449 7.25971 14.5722 7.29083 14.5053C7.32195 14.4383 7.36722 14.3785 7.42365 14.3299C7.43121 14.3224 7.43783 14.3225 7.44539 14.316C7.47006 14.2962 7.48997 14.2714 7.50369 14.2432C7.51742 14.2151 7.52463 14.1843 7.5248 14.1531C7.50306 14.1531 7.50306 14.1531 7.50306 14.1457L7.50211 14.1448ZM17.6549 8.08246C17.6474 7.95475 17.6332 7.82797 17.6256 7.70027V7.68639C17.6202 7.63331 17.5952 7.58398 17.5554 7.54756C17.5156 7.51114 17.4636 7.4901 17.4091 7.48835C17.3755 7.48835 17.3424 7.49605 17.3123 7.51083C17.2823 7.52562 17.2562 7.54707 17.2361 7.57349C17.2322 7.5772 17.2295 7.58207 17.2286 7.58737V7.59477L17.2144 7.60865C16.7759 8.30534 16.189 8.90126 15.4939 9.35581C15.3204 10.0638 14.8722 10.6778 14.2442 11.0678L14.1799 11.1104C14.1638 11.1174 14.1491 11.1271 14.1364 11.1391C13.5417 11.485 12.8538 11.6463 12.1635 11.6018C12.0198 11.5644 11.8696 11.5569 11.7227 11.5798C11.5758 11.6028 11.4354 11.6556 11.3107 11.735C11.186 11.8144 11.0796 11.9185 10.9986 12.0406C10.9175 12.1627 10.8635 12.3001 10.8401 12.4439L10.7824 12.6706C10.6286 13.3995 10.411 14.1141 10.132 14.8064C9.9963 15.108 9.78079 15.3687 9.50774 15.5615C9.2347 15.7543 8.91402 15.8722 8.57884 15.903C8.26559 15.9526 7.96718 16.0685 7.70441 16.2427C7.68377 16.2652 7.6595 16.2843 7.63257 16.2991C7.45201 16.4407 7.27807 16.5675 7.11264 16.6739L7.06159 16.7091C6.78892 16.8915 6.48557 17.0256 6.16542 17.1051L6.1295 17.1125C6.12554 17.1121 6.12153 17.1125 6.11776 17.1138C6.114 17.1151 6.11058 17.1172 6.10775 17.1199H6.09263C6.04434 17.1313 6.00149 17.1586 5.97122 17.1971C5.94095 17.2357 5.92508 17.2832 5.92625 17.3319C5.92707 17.3744 5.93947 17.4159 5.96217 17.4522C5.97115 17.4603 5.97852 17.4701 5.98392 17.4809C5.98376 17.4819 5.98384 17.4829 5.98416 17.4839C5.98449 17.4848 5.98504 17.4857 5.98578 17.4864C5.98651 17.4872 5.98741 17.4877 5.9884 17.488C5.9894 17.4883 5.99045 17.4884 5.99148 17.4883C6.14241 17.6678 6.33763 17.8067 6.55868 17.8917L6.57286 17.8991C6.86763 18.0105 7.18143 18.0658 7.49739 18.062C8.12083 18.0558 8.73271 17.8965 9.27693 17.5987C9.82114 17.3008 10.2803 16.874 10.6122 16.3574C10.9833 15.6712 11.429 15.0262 11.9414 14.4335C12.6166 13.6916 13.5286 13.1954 14.5287 13.026C15.454 12.8687 16.3021 12.4219 16.9459 11.7526C17.1875 11.5047 17.3745 11.2108 17.4952 10.8892C17.5027 10.8605 17.5169 10.8328 17.5245 10.8115C17.7541 9.91888 17.7984 8.99028 17.6549 8.08061V8.08246ZM5.71733 11.351C5.7184 11.3408 5.71572 11.3307 5.70977 11.3223V11.3149C5.64408 11.1863 5.59304 11.051 5.55757 10.9114V10.8975C5.54673 10.8679 5.52725 10.842 5.50155 10.8231C5.47584 10.8042 5.44503 10.7931 5.41294 10.7911C5.38941 10.7907 5.3661 10.7956 5.3448 10.8054C5.3235 10.8152 5.30477 10.8296 5.29005 10.8476C5.28912 10.8529 5.28647 10.8577 5.28248 10.8614C5.28265 10.8625 5.28256 10.8635 5.28224 10.8645C5.28192 10.8654 5.28136 10.8663 5.28063 10.867C5.27989 10.8678 5.27899 10.8683 5.278 10.8686C5.277 10.8689 5.27595 10.869 5.27492 10.8688C5.26897 10.8772 5.26629 10.8874 5.26736 10.8975C5.20314 11.0922 5.12835 11.2835 5.04332 11.4704C4.99567 11.5684 4.94492 11.665 4.89112 11.76C4.89128 11.761 4.8912 11.7621 4.89087 11.763C4.89055 11.764 4.89 11.7649 4.88926 11.7656C4.88852 11.7663 4.88762 11.7669 4.88663 11.7672C4.88564 11.7675 4.88459 11.7676 4.88356 11.7674V11.7748C4.88356 11.7822 4.87599 11.7887 4.87599 11.8035C4.87502 11.8157 4.87765 11.8279 4.88356 11.8387C4.88339 11.8397 4.88348 11.8407 4.8838 11.8417C4.88412 11.8426 4.88468 11.8435 4.88541 11.8443C4.88615 11.845 4.88705 11.8455 4.88804 11.8458C4.88903 11.8461 4.89009 11.8462 4.89112 11.8461C4.9048 11.8615 4.91684 11.8782 4.92704 11.896C4.94923 11.9414 4.98264 11.9807 5.02423 12.0103C5.06583 12.0398 5.1143 12.0588 5.16526 12.0654C5.22206 12.0587 5.27626 12.0383 5.32297 12.006C5.36968 11.9737 5.40743 11.9305 5.43279 11.8803C5.43279 11.8729 5.44035 11.8729 5.44035 11.8664C5.52438 11.7094 5.61361 11.5551 5.70788 11.4037C5.70881 11.3984 5.71146 11.3936 5.71544 11.3898C5.72135 11.3791 5.72398 11.3669 5.72301 11.3547C5.71544 11.3621 5.71544 11.3621 5.71544 11.3547L5.71733 11.351ZM4.78524 12.2708C4.78524 12.2634 4.77768 12.2634 4.77768 12.257C4.77784 12.2559 4.77776 12.2549 4.77743 12.2539C4.77711 12.253 4.77656 12.2521 4.77582 12.2514C4.77508 12.2506 4.77418 12.2501 4.77319 12.2498C4.7722 12.2495 4.77115 12.2494 4.77012 12.2495C4.7592 12.2348 4.74504 12.2227 4.72867 12.214C4.71231 12.2054 4.69416 12.2004 4.67558 12.1996C4.65753 12.199 4.63959 12.2025 4.62318 12.2099C4.60677 12.2173 4.59235 12.2283 4.58105 12.2421C4.58121 12.2432 4.58113 12.2442 4.58081 12.2452C4.58048 12.2461 4.57993 12.247 4.57919 12.2477C4.57846 12.2485 4.57755 12.249 4.57656 12.2493C4.57557 12.2496 4.57452 12.2497 4.57349 12.2495V12.257C4.57365 12.258 4.57357 12.259 4.57324 12.26C4.57292 12.2609 4.57237 12.2618 4.57163 12.2625C4.57089 12.2633 4.56999 12.2638 4.569 12.2641C4.56801 12.2644 4.56696 12.2645 4.56593 12.2644C4.42525 12.5397 4.34628 12.8414 4.33432 13.149V13.1629C4.33419 13.1778 4.33709 13.1925 4.34284 13.2063C4.34859 13.22 4.35708 13.2325 4.36782 13.243C4.37855 13.2535 4.39132 13.2618 4.40537 13.2675C4.41942 13.2731 4.43447 13.2759 4.44965 13.2758C4.47309 13.2753 4.49582 13.2679 4.51488 13.2545L4.52244 13.2471C4.55034 13.2276 4.57687 13.2063 4.60185 13.1833L4.60941 13.1759C4.68152 13.1193 4.74915 13.0574 4.81171 12.9908L4.81927 12.9834L4.82684 12.976C5.0159 12.8066 4.93555 12.5448 4.78335 12.269L4.78524 12.2708Z" fill="#90A1B8"/>
</svg>
