<svg width="48" height="43" viewBox="0 0 48 43" fill="none" xmlns="http://www.w3.org/2000/svg">
<path d="M47.4434 5.09378C45.6905 5.94676 43.8189 6.52784 41.8482 6.79317C43.8565 5.45339 45.4014 3.34176 46.1322 0.822285C44.2486 2.03927 42.1611 2.92514 39.9389 3.41851C38.1642 1.31566 35.635 0 32.8265 0C27.4452 0 23.0819 4.83065 23.0819 10.7818C23.0819 11.637 23.1711 12.4593 23.3335 13.2465C15.2328 12.8233 8.05313 8.51667 3.24819 2.00637C2.40247 3.58955 1.92911 5.42927 1.92911 7.43345C1.92911 11.1831 3.65223 14.4788 6.26267 16.415C4.66432 16.358 3.16104 15.8712 1.84988 15.0643V15.198C1.84988 20.4277 5.20304 24.7891 9.66534 25.7825C8.84735 26.0259 7.98381 26.1574 7.09848 26.1574C6.47657 26.1574 5.88041 26.0916 5.28425 25.9688C6.53401 30.2513 10.1268 33.3738 14.4029 33.4615C11.0755 36.3537 6.85883 38.0773 2.31731 38.0773C1.54487 38.0773 0.774416 38.0268 0 37.9303C4.33554 40.987 9.44351 42.7741 14.9674 42.7741C32.8998 42.7741 42.6939 26.3372 42.6939 12.1062C42.6939 11.6479 42.6939 11.1853 42.6642 10.7248C44.5675 9.21397 46.2292 7.30408 47.5364 5.13763L47.4434 5.09378Z" fill="white"/>
</svg>
