<svg width="43" height="49" viewBox="0 0 43 49" fill="none" xmlns="http://www.w3.org/2000/svg">
<path d="M22.1291 0.0402145C24.7763 0 27.4033 0.0201073 30.0302 0C30.1919 3.07641 31.3033 6.21314 33.5666 8.38473C35.8298 10.6166 39.0226 11.6421 42.1346 11.9839V20.0872C39.2247 19.9866 36.2946 19.3834 33.6474 18.1367C32.4956 17.614 31.4246 16.9504 30.3738 16.2668C30.3536 22.1381 30.394 28.0094 30.3334 33.8606C30.1717 36.6756 29.2422 39.4705 27.6053 41.7829C24.9582 45.6435 20.371 48.1569 15.6627 48.2373C12.773 48.3982 9.88332 47.614 7.41799 46.1663C3.33607 43.7735 0.466596 39.3901 0.0422372 34.685C0.0018221 33.6797 -0.0183854 32.6743 0.0220297 31.689C0.385766 27.8687 2.28528 24.2091 5.23558 21.7158C8.59003 18.8204 13.2782 17.433 17.6632 18.2574C17.7036 21.2333 17.5824 24.2091 17.5824 27.185C15.5818 26.5416 13.2378 26.7225 11.4797 27.929C10.2066 28.7534 9.23668 30.0201 8.73149 31.4478C8.30713 32.4732 8.42837 33.5992 8.44858 34.685C8.93356 37.9826 12.1264 40.7574 15.5212 40.4558C17.7845 40.4357 19.9467 39.1287 21.1187 37.2185C21.5027 36.555 21.927 35.8713 21.9472 35.0872C22.1493 31.488 22.0685 27.9089 22.0887 24.3097C22.1089 16.2064 22.0685 8.12333 22.1291 0.0402145Z" fill="white"/>
</svg>
